<?xml version="1.0" encoding="UTF-8" standalone="no"?>
<!-- Created with Inkscape (http://www.inkscape.org/) -->

<svg
   width="166.43349mm"
   height="166.43352mm"
   viewBox="0 0 166.43349 166.43352"
   version="1.1"
   id="svg1"
   xml:space="preserve"
   inkscape:version="1.3 (0e150ed6c4, 2023-07-21)"
   sodipodi:docname="ShoperPrime.svg"
   xmlns:inkscape="http://www.inkscape.org/namespaces/inkscape"
   xmlns:sodipodi="http://sodipodi.sourceforge.net/DTD/sodipodi-0.dtd"
   xmlns="http://www.w3.org/2000/svg"
   xmlns:svg="http://www.w3.org/2000/svg"><sodipodi:namedview
     id="namedview1"
     pagecolor="#ffffff"
     bordercolor="#000000"
     borderopacity="0.25"
     inkscape:showpageshadow="2"
     inkscape:pageopacity="0.0"
     inkscape:pagecheckerboard="0"
     inkscape:deskcolor="#d1d1d1"
     inkscape:document-units="mm"
     inkscape:zoom="0.50394254"
     inkscape:cx="143.86561"
     inkscape:cy="2283.9905"
     inkscape:window-width="2560"
     inkscape:window-height="1009"
     inkscape:window-x="-8"
     inkscape:window-y="-8"
     inkscape:window-maximized="1"
     inkscape:current-layer="layer1"
     inkscape:export-bgcolor="#ffffff00" /><defs
     id="defs1" /><g
     inkscape:label="Layer 1"
     inkscape:groupmode="layer"
     id="layer1"
     transform="translate(51.33257,-854.23081)"><rect
       style="fill:#0097a7;fill-opacity:1;stroke:none;stroke-width:0;stroke-dasharray:none"
       id="rect2-7"
       width="166.43349"
       height="166.43349"
       x="-51.332569"
       y="854.23083"
       ry="83.216743"
       inkscape:export-filename="icon.png"
       inkscape:export-xdpi="96"
       inkscape:export-ydpi="96" /><path
       id="rect15-5-0-7-2"
       style="fill:#deffff;fill-opacity:1;stroke-width:0.262561"
       d="m 19.834324,905.31541 v 21.39203 h 4.81224 v -10.94346 c 0.458266,-0.32078 0.889022,-0.55435 1.292298,-0.701 0.403262,-0.14666 0.801763,-0.22001 1.195878,-0.22001 0.522415,0 0.939652,0.0775 1.25127,0.23335 0.311616,0.14664 0.549881,0.39426 0.714864,0.74255 0.137405,0.29329 0.229036,0.75161 0.274851,1.37485 0.05494,0.61408 0.08261,1.23263 0.08261,1.85588 v 7.65784 h 4.839429 v -10.05012 c 0,-1.88807 -0.417209,-3.32702 -1.25127,-4.31687 -0.834045,-0.99903 -2.039402,-1.49844 -3.61585,-1.49844 -0.907369,0 -1.736613,0.18781 -2.488161,0.56357 -0.742402,0.37578 -1.507648,0.89862 -2.295879,1.56768 v -7.65785 z m -10.0357662,0.54973 c -2.428828,0 -4.454587,0.59618 -6.0768495,1.78768 -1.6222756,1.18233 -2.433296,2.73104 -2.433296,4.6466 0,1.42064 0.3438575,2.60311 1.0312555,3.54714 0.6874111,0.94403 1.823582,1.69524 3.409189,2.25434 0.687411,0.23829 1.425606,0.44013 2.213823,0.60511 0.797391,0.16498 1.543916,0.33924 2.2404732,0.52255 0.559098,0.14666 1.040305,0.38023 1.443581,0.70103 0.403275,0.32078 0.60512,0.73799 0.60512,1.25126 0,0.45827 -0.123844,0.8292 -0.371282,1.11331 -0.247454,0.27498 -0.549716,0.49035 -0.907163,0.64615 -0.293296,0.13754 -0.682942,0.23841 -1.1687022,0.30255 -0.4766,0.0642 -0.861569,0.0964 -1.154865,0.0964 -1.163997,0 -2.364678,-0.23407 -3.601999,-0.70151 -1.2373215,-0.46744 -2.3693262,-1.13646 -3.3958495,-2.00717 H 1.1648162 v 3.58817 l -11.2429392,0.0149 -5.13e-4,-1.65127 -5.12e-4,-1.65126 2.9425264,-0.0743 c 4.6161531,-0.11678 4.9992256,-0.56875 4.9932755,-5.88607 -0.00417,-3.88482 -0.1692439,-4.45804 -1.548703,-5.38763 -0.8839852,-0.59496 -0.9345057,-0.59833 -10.3670499,-0.59794 -10.632297,4.6e-4 -10.877647,0.0386 -11.776257,1.83742 -0.588433,1.17789 -0.658422,6.63616 -0.101985,7.95067 0.700571,1.65521 1.21319,1.88164 4.591744,2.02664 l 3.058411,0.13132 0.07846,1.64101 0.0779,1.641 h -4.655325 c -4.153569,0 -4.775309,0.0577 -5.765066,0.53692 -1.926241,0.9322 -1.947288,1.07356 -1.930226,12.92444 0.01107,7.26178 0.10724,10.56863 0.328208,11.21012 0.482771,1.40168 1.74641,2.10972 3.765583,2.10972 h 1.668189 v 1.03228 1.03281 l -4.287126,0.0826 c -4.070144,0.0791 -4.336125,0.11678 -5.255312,0.73998 -1.743879,1.18235 -2.010234,2.14875 -2.010234,7.28608 0,2.54665 0.121353,4.8155 0.279998,5.23427 0.398184,1.05096 1.262077,1.91353 2.476899,2.47433 0.99824,0.46061 2.318598,0.4846 26.6493942,0.4846 24.3339908,0 25.6516108,-0.0238 26.6499198,-0.4846 1.215001,-0.56077 2.078659,-1.42325 2.476897,-2.47433 0.158659,-0.41877 0.279985,-2.68762 0.279985,-5.23427 0,-5.13733 -0.266341,-6.10373 -2.010234,-7.28608 -0.919159,-0.6232 -1.18514,-0.6609 -5.25531,-0.73998 l -4.287127,-0.0826 v -1.03281 -1.03228 h 1.668188 c 2.019186,0 3.282827,-0.70804 3.765598,-2.10972 0.221507,-0.64311 0.316086,-3.95034 0.32205,-11.28088 0.0083,-9.56041 -0.02892,-10.45517 -0.478979,-11.44601 -0.246028,-0.5418 -0.437454,-0.92932 -0.863575,-1.2123 1.381866,-1.20161 2.082021,-2.74209 2.082021,-4.6307 0,-1.42063 -0.348038,-2.56201 -1.044594,-3.42355 -0.687411,-0.87072 -1.741389,-1.56261 -3.162014,-2.07587 -0.724066,-0.25663 -1.407117,-0.45849 -2.048686,-0.60512 -0.632407,-0.14665 -1.2925742,-0.29751 -1.9799852,-0.45333 -1.063179,-0.24746 -1.782651,-0.52266 -2.158432,-0.82511 -0.366621,-0.31164 -0.54973,-0.72833 -0.54973,-1.25076 0,-0.35745 0.114434,-0.67843 0.343581,-0.96255 0.238307,-0.29328 0.518181,-0.51334 0.838958,-0.65999 0.394115,-0.18332 0.769717,-0.30712 1.127176,-0.37127 0.357447,-0.0642 0.760612,-0.0959 1.2097162,-0.0959 1.154838,0 2.277488,0.22422 3.368161,0.67332 1.099848,0.4491 2.030519,0.99897 2.791254,1.64972 h 0.453325 v -4.6743 c -0.953198,-0.42161 -2.034738,-0.75611 -3.244579,-1.00358 -1.200652,-0.24745 -2.410187,-0.37127 -3.6291742,-0.37127 z m -23.9253488,4.69481 c 9.1101339,0 9.5640262,0.0231 10.0039852,0.50923 0.394434,0.4359 0.4561481,1.01267 0.4302443,4.00405 -0.027814,3.20665 -0.075696,3.53273 -0.5805035,3.95431 -0.5013834,0.41871 -1.3795849,0.45948 -9.890645,0.45948 -11.534808,0 -10.555761,0.41778 -10.555761,-4.50967 0,-3.01744 0.05452,-3.42175 0.525113,-3.89227 0.505866,-0.50586 0.874921,-0.52513 10.067567,-0.52513 z m 58.831555,0.22719 c -2.520461,0 -4.481725,0.72882 -5.884014,2.18612 -1.393145,1.44812 -2.089716,3.45517 -2.089716,6.02147 0,2.53879 0.696571,4.54166 2.089716,6.00812 1.402289,1.45729 3.363553,2.18562 5.884014,2.18562 2.538818,0 4.500071,-0.72833 5.884033,-2.18562 1.393134,-1.46646 2.089723,-3.46933 2.089723,-6.00812 0,-2.54798 -0.696589,-4.55084 -2.089723,-6.00813 -1.393124,-1.46647 -3.354388,-2.19946 -5.884033,-2.19946 z m 35.373923,0 c -2.60296,0 -4.628717,0.75172 -6.076854,2.25484 -1.448115,1.50312 -2.172277,3.51483 -2.172277,6.0353 0,2.57547 0.774611,4.55962 2.323558,5.95276 1.558121,1.39312 3.794562,2.08971 6.709148,2.08971 0.797389,0 1.47108,-0.0412 2.021006,-0.12357 0.559078,-0.0734 1.099612,-0.17892 1.622021,-0.31641 0.568261,-0.1374 1.013044,-0.27013 1.333842,-0.39846 0.32995,-0.13754 0.692025,-0.28417 1.086128,-0.43999 v -3.97328 h -0.508705 c -0.210805,0.15581 -0.486004,0.33475 -0.825115,0.5364 -0.32995,0.20164 -0.692036,0.38945 -1.08615,0.56358 -0.449094,0.20165 -0.943831,0.36654 -1.484597,0.49487 -0.540743,0.11914 -1.090626,0.17846 -1.649714,0.17846 -0.650737,0 -1.251091,-0.0594 -1.800996,-0.17846 -0.549927,-0.12827 -1.031136,-0.33434 -1.443584,-0.61845 -0.421609,-0.28414 -0.760786,-0.66494 -1.017421,-1.14153 -0.256634,-0.48576 -0.408015,-1.08612 -0.453845,-1.80101 H 87.20014 v -1.73229 c 0,-2.37383 -0.595669,-4.19772 -1.78716,-5.47171 -1.191492,-1.27399 -2.969633,-1.91075 -5.334293,-1.91075 z m -15.329044,0.055 c -0.962353,0 -1.810322,0.18779 -2.543547,0.56357 -0.733225,0.37578 -1.452701,0.86636 -2.158452,1.47128 v -1.6087 h -4.811719 v 21.10332 h 4.811719 v -6.43376 c 0.641586,0.36661 1.246614,0.63661 1.814853,0.81074 0.568261,0.17416 1.237267,0.26154 2.00716,0.26154 1.833078,0 3.372941,-0.75641 4.619435,-2.26869 1.255645,-1.51229 1.883044,-3.50111 1.883044,-5.96658 0,-2.44716 -0.490052,-4.38083 -1.47075,-5.80147 -0.980687,-1.42062 -2.364495,-2.13125 -4.151743,-2.13125 z m 34.246231,0.37128 c -0.41243,0 -0.85254,0.078 -1.31998,0.23383 -0.45827,0.14665 -0.86144,0.32509 -1.20973,0.5359 -0.32079,0.18331 -0.67819,0.43092 -1.07229,0.74255 -0.38495,0.30246 -0.68719,0.55477 -0.90716,0.75639 v -2.2138 h -4.812249 v 15.43929 h 4.812249 v -10.33886 c 0.52243,-0.20163 1.05825,-0.37538 1.60818,-0.52203 0.55908,-0.14665 1.09076,-0.22 1.59484,-0.22 0.42163,0 0.8066,0.0183 1.15486,0.055 0.34828,0.0275 0.61412,0.0732 0.79743,0.1374 h 0.398456 v -4.55072 c -0.155816,-0.0184 -0.329566,-0.0318 -0.522056,-0.0409 -0.19246,-0.009 -0.36675,-0.0138 -0.52255,-0.0138 z m -107.6991465,1.43638 -5.4481215,0.0707 -5.448149,0.0712 v 2.23178 2.23176 l 5.267627,0.0707 c 2.897305,0.0391 5.349005,-0.01 5.4481357,-0.10918 0.099209,-0.0991 0.1805078,-1.16748 0.1805078,-2.37383 z m 88.4106895,1.23076 c 0.916523,0 1.594898,0.26583 2.034831,0.79743 0.449105,0.53159 0.687373,1.3062 0.714869,2.32357 h -5.81582 c 0.05497,-0.96238 0.343719,-1.72346 0.866128,-2.28255 0.531592,-0.5591 1.265124,-0.83845 2.199992,-0.83845 z m -35.002653,0.35743 c 0.458278,0 0.866128,0.078 1.223573,0.23384 0.357468,0.14664 0.678442,0.41248 0.962561,0.79744 0.265797,0.3666 0.471807,0.85667 0.618458,1.47075 0.155813,0.6049 0.233835,1.36599 0.233835,2.28252 0,0.98069 -0.07329,1.75062 -0.219999,2.30971 -0.14663,0.54993 -0.36201,1.02178 -0.646129,1.41589 -0.238312,0.32994 -0.559286,0.57758 -0.962561,0.74254 -0.394114,0.16499 -0.783762,0.24718 -1.168703,0.24718 -0.467439,0 -0.893503,-0.0822 -1.278444,-0.24718 -0.384952,-0.16496 -0.705411,-0.42663 -0.962035,-0.78408 -0.247472,-0.34828 -0.449317,-0.81078 -0.605125,-1.38818 -0.155809,-0.58659 -0.233837,-1.35184 -0.233837,-2.29588 0,-0.94403 0.08275,-1.72801 0.247675,-2.35124 0.164982,-0.62325 0.385037,-1.11332 0.660005,-1.47076 0.293292,-0.37578 0.613751,-0.62808 0.962034,-0.75641 0.348284,-0.1374 0.737921,-0.20614 1.168692,-0.20614 z m 17.886449,0.34357 c 0.980697,0 1.700174,0.3392 2.15843,1.01744 0.467439,0.67824 0.701022,1.76914 0.701022,3.27227 0,1.53977 -0.284043,2.69469 -0.852304,3.46457 -0.568239,0.76072 -1.439107,1.14101 -2.612264,1.14101 -0.42161,0 -0.78837,-0.0229 -1.099985,-0.0688 -0.302465,-0.0457 -0.581823,-0.12384 -0.838468,-0.23383 v -7.7676 c 0.412459,-0.27495 0.829152,-0.48149 1.250762,-0.61897 0.430771,-0.13754 0.862036,-0.20615 1.292807,-0.20615 z m -69.407321,11.20705 c 3.7615179,0 6.20928815,0.004 8.745521,0.007 0.802538,0.31413 1.6372206,0.59959 2.5348488,0.82921 1.191492,0.30247 2.570619,0.45385 4.137892,0.45385 2.0740242,0 3.8188152,-0.36171 5.2384022,-1.07999 0.518997,0.0753 0.684575,0.17536 0.824097,0.31488 0.507954,0.50794 0.525112,0.87519 0.525112,11.23164 0,9.26529 -0.05494,10.78513 -0.408713,11.29011 l -0.408714,0.58357 H -6.8653404 -28.103019 l -0.408714,-0.58357 c -0.353642,-0.50497 -0.408714,-2.02381 -0.408714,-11.27986 0,-10.66536 9.97e-4,-10.69785 0.574347,-11.23166 0.568328,-0.52942 0.804185,-0.53536 21.529992,-0.53536 z m 54.390067,1.45947 v 3.97739 h 5.031236 v -3.97739 z m -29.970893,0.97589 v 21.69561 h 5.086082 v -7.0958 h 2.6651 c 0.725243,0 1.37824,-0.063 1.958441,-0.18923 0.589249,-0.12633 1.133167,-0.30118 1.631768,-0.52461 0.498601,-0.22342 0.951525,-0.49532 1.359477,-0.81588 0.417002,-0.32056 0.798055,-0.6704 1.14255,-1.04922 0.562058,-0.61197 0.992608,-1.37459 1.291771,-2.28767 0.299163,-0.91308 0.448718,-1.87487 0.448718,-2.88509 0,-1.25306 -0.208626,-2.33095 -0.625642,-3.23432 -0.417003,-0.91308 -1.006155,-1.64164 -1.767666,-2.18561 -0.688974,-0.49539 -1.459604,-0.85503 -2.311762,-1.07844 -0.843096,-0.23314 -1.849486,-0.34974 -3.018936,-0.34974 z m -39.319501,1.80202 c -2.58519,0.005 -3.749353,0.0826 -3.947642,0.24718 -0.374328,0.31068 -0.507249,2.20026 -0.20922,2.97688 0.139756,0.36417 1.013695,0.41538 7.101435,0.41538 h 6.941447 l -0.07735,-1.77228 -0.07735,-1.77229 -6.655305,-0.0769 c -1.194315,-0.0138 -2.214128,-0.0198 -3.075862,-0.018 z m -3.2656,1.01383 h 6.170182 6.170168 v 0.78768 0.78769 h -6.170168 -6.170182 v -0.78769 z m 22.8243255,0.26206 0.07541,2.69124 0.074302,2.69125 2.37534635,0.0754 c 1.30667415,0.0413 2.45865985,-0.009 2.55996305,-0.10973 0.101425,-0.10127 0.1846179,-1.3461 0.1846179,-2.76613 v -2.5815 l -2.63483705,-5e-4 z m 7.5014453,0.13131 v 2.62562 2.6256 l 2.564586,0.0754 c 1.97809,0.0582 2.5958992,-0.007 2.7020182,-0.28306 0.07568,-0.19722 0.103092,-1.41275 0.06103,-2.701 l -0.07639,-2.34202 -2.6256082,-5.1e-4 z m 17.3454122,0.84154 h 0.72051 c 0.752434,0 1.346373,0.0195 1.781517,0.0584 0.444206,0.0292 0.906691,0.15505 1.387165,0.37845 0.380749,0.16514 0.706992,0.47112 0.978965,0.91795 0.271959,0.43711 0.40769,0.96185 0.40769,1.57383 0,0.66052 -0.06337,1.18527 -0.190264,1.57381 -0.117894,0.38855 -0.348839,0.76212 -0.69332,1.12153 -0.163184,0.17484 -0.398959,0.33531 -0.707186,0.48101 -0.299149,0.13602 -0.584931,0.22836 -0.856904,0.27694 -0.317291,0.0583 -0.688781,0.0924 -1.114861,0.10193 -0.426079,0.01 -0.879502,0.0144 -1.359976,0.0144 h -0.353336 z m 67.025825,0.77229 c -2.574597,0 -4.578345,0.79667 -6.010682,2.38972 -1.43236,1.59304 -2.148183,3.72507 -2.148183,6.39632 0,2.72954 0.765845,4.83269 2.297917,6.30915 1.541136,1.47648 3.752989,2.21434 6.6358,2.21434 0.78871,0 1.455039,-0.0433 1.998953,-0.13077 0.552999,-0.0778 1.087872,-0.18966 1.604606,-0.33537 0.56206,-0.14571 1.00167,-0.28657 1.31896,-0.42256 0.32635,-0.1457 0.68452,-0.30101 1.07435,-0.46615 v -4.21071 h -0.50309 c -0.2085,0.16514 -0.48045,0.3545 -0.81588,0.5682 -0.32636,0.2137 -0.68454,0.41287 -1.07435,0.59743 -0.44421,0.21371 -0.933846,0.38861 -1.468686,0.5246 -0.534873,0.12633 -1.078798,0.18924 -1.631797,0.18924 -0.643628,0 -1.237058,-0.063 -1.780983,-0.18924 -0.543936,-0.13602 -1.02023,-0.35476 -1.428201,-0.65588 -0.417001,-0.30114 -0.752294,-0.70411 -1.006131,-1.20921 -0.253837,-0.51483 -0.403385,-1.15105 -0.448721,-1.90871 h 10.430129 v -1.8359 c 0,-2.51584 -0.58968,-4.4492 -1.76819,-5.79941 -1.17851,-1.35019 -2.936934,-2.02511 -5.275821,-2.02511 z m -24.314055,0.0584 c -0.861224,0 -1.63612,0.19917 -2.325095,0.59742 -0.688986,0.39826 -1.423417,0.95192 -2.203053,1.66102 v -1.80717 h -4.759427 v 16.36287 h 4.759427 v -11.5983 c 0.353561,-0.26228 0.716514,-0.49035 1.088201,-0.68462 0.371676,-0.19426 0.752206,-0.29128 1.14203,-0.29128 0.507662,0 0.902028,0.0826 1.183065,0.24768 0.290088,0.15543 0.502977,0.40776 0.638975,0.75743 0.13602,0.3497 0.217915,0.80635 0.245114,1.36974 0.03621,0.55367 0.05431,1.22857 0.05431,2.02509 v 8.17426 h 4.786604 v -11.5983 c 0.417013,-0.31085 0.802327,-0.54872 1.155888,-0.71385 0.353561,-0.17485 0.71173,-0.26205 1.074343,-0.26205 0.516726,0 0.915371,0.0826 1.196396,0.24768 0.290099,0.15543 0.502989,0.40776 0.638965,0.75743 0.136019,0.3497 0.217936,0.80168 0.245125,1.35537 0.02721,0.55368 0.04049,1.23323 0.04049,2.03946 v 8.17426 h 4.786615 v -10.65113 c 0,-1.16564 -0.108622,-2.10782 -0.326142,-2.82663 -0.208511,-0.72853 -0.525711,-1.35493 -0.951786,-1.87948 -0.389813,-0.48567 -0.866129,-0.84996 -1.428201,-1.0928 -0.562051,-0.24283 -1.19644,-0.36409 -1.903552,-0.36409 -0.834024,0 -1.658952,0.24767 -2.47484,0.74306 -0.806825,0.48568 -1.667939,1.18485 -2.583562,2.09792 -0.371675,-0.94222 -0.911321,-1.65117 -1.618444,-2.12716 -0.7071,-0.47595 -1.52776,-0.71382 -2.461509,-0.71382 z m -20.546924,0.39326 c -0.407949,0 -0.842758,0.0826 -1.305106,0.24769 -0.453275,0.15542 -0.852425,0.34479 -1.196903,0.56821 -0.317305,0.19427 -0.670682,0.45638 -1.060508,0.78665 -0.380749,0.32054 -0.679843,0.58782 -0.897422,0.80153 v -2.34613 h -4.759423 v 16.36287 h 4.759423 v -10.95678 c 0.516742,-0.21371 1.046823,-0.39842 1.590756,-0.55384 0.552997,-0.15543 1.078819,-0.23334 1.577418,-0.23334 0.417013,0 0.798048,0.0196 1.142535,0.0584 0.344509,0.0292 0.607398,0.0776 0.78871,0.14563 h 0.394366 v -4.823 c -0.154124,-0.0194 -0.326548,-0.0339 -0.516923,-0.0436 -0.190375,-0.01 -0.3628,-0.0144 -0.516923,-0.0144 z m 2.855864,0.058 v 16.36286 h 4.759438 v -16.36282 z m 41.637927,2.76868 c 0.906571,0 1.577156,0.28172 2.012294,0.84512 0.444212,0.56339 0.679967,1.38431 0.707166,2.46253 h -5.75171 c 0.05442,-1.01993 0.339659,-1.82642 0.856396,-2.41894 0.52581,-0.59254 1.251179,-0.88871 2.175854,-0.88871 z m -78.621544,2.31022 -2.6912532,0.0748 -2.691252,0.0748 v 2.49433 2.49432 l 2.691252,0.0748 2.6912532,0.0743 v -2.64356 z m -12.8654913,0.0184 v 2.62561 2.62561 H 0.48635825 3.1119656 v -2.62561 -2.62561 H 0.48635825 Z m 34.6703323,14.29726 c -3.575998,0 -6.454788,2.37592 -6.454788,5.32762 v 5.97325 c 0,2.95172 2.87879,5.32763 6.454788,5.32763 h 56.341353 c 3.575999,0 6.454779,-2.37591 6.454779,-5.32763 v -5.97325 c 0,-2.9517 -2.87878,-5.32762 -6.454779,-5.32762 z m -39.3964224,1.58767 c 21.0481214,0 25.4835694,0.0617 26.2027374,0.36513 1.461639,0.61656 1.628711,1.28009 1.628711,6.47427 v 4.6343 l -0.896922,0.8964 -0.896398,0.8964 -26.1688913,-0.0693 -26.1688927,-0.0693 -0.765634,-0.85742 -0.76616,-0.85794 v -4.60353 c 0,-5.16123 0.168152,-5.82813 1.628199,-6.44402 0.719155,-0.30341 5.155129,-0.36513 26.2032506,-0.36513 z m 78.4682374,3.202 c 0.270931,0 0.524186,0.009 0.75948,0.0267 0.235283,0.0148 0.438616,0.0356 0.609724,0.062 v 1.12102 H 72.82749 c -0.07121,-0.0177 -0.183627,-0.0402 -0.336916,-0.0667 -0.149735,-0.0293 -0.292733,-0.044 -0.428193,-0.044 -0.377897,0 -0.635826,0.0581 -0.774863,0.17281 -0.135471,0.11471 -0.203596,0.32925 -0.203596,0.64411 v 0.0394 h 1.486649 v 1.07742 h -1.422024 v 3.87994 h -1.872292 v -3.87994 h -0.748202 v -1.07742 h 0.748202 v -0.13644 c 0,-0.60619 0.19292,-1.06099 0.577949,-1.36408 0.385018,-0.30309 0.967948,-0.45486 1.748693,-0.45486 z m 4.187127,0 c 0.270943,0 0.524187,0.009 0.75947,0.0267 0.235294,0.0148 0.438616,0.0356 0.609746,0.062 v 1.12102 h -0.144611 c -0.07121,-0.0177 -0.183627,-0.0402 -0.336927,-0.0667 -0.149735,-0.0293 -0.292217,-0.044 -0.427688,-0.044 -0.377897,0 -0.636847,0.0581 -0.775884,0.17281 -0.135471,0.11471 -0.20308,0.32925 -0.20308,0.64411 v 0.0394 h 1.487164 v 1.07742 h -1.422539 v 3.87994 h -1.871777 v -3.87994 h -0.748717 v -1.07742 h 0.748706 v -0.13644 c 0,-0.60619 0.192921,-1.06099 0.57795,-1.36408 0.385028,-0.30309 0.967443,-0.45486 1.748187,-0.45486 z m -21.604348,0.0441 h 1.871765 v 6.86862 h -1.871765 v -0.51692 c -0.121208,0.0825 -0.260058,0.17097 -0.416914,0.26514 -0.153289,0.0941 -0.289024,0.16469 -0.406665,0.21178 -0.149735,0.0588 -0.297418,0.10291 -0.443586,0.13229 -0.146158,0.0293 -0.320887,0.044 -0.524088,0.044 -0.684487,0 -1.226339,-0.23367 -1.62562,-0.70153 -0.399292,-0.46789 -0.598972,-1.09366 -0.598972,-1.87639 0,-0.43257 0.0677,-0.80729 0.203081,-1.12512 0.135471,-0.31779 0.322675,-0.59482 0.561535,-0.83024 0.217465,-0.21482 0.481615,-0.38358 0.791771,-0.50718 0.310167,-0.12647 0.63778,-0.18974 0.983583,-0.18974 0.313722,0 0.570598,0.0276 0.770245,0.0836 0.203212,0.053 0.438253,0.13698 0.70563,0.25178 z m 23.267909,0 h 1.978435 v 1.2051 h -1.978435 z m -13.256754,0.15896 c 1.197855,0 2.140633,0.30586 2.828686,0.91795 0.688053,0.60912 1.032288,1.44535 1.032288,2.50765 0,1.06228 -0.344235,1.89801 -1.032288,2.50715 -0.688053,0.60913 -1.630831,0.91332 -2.828686,0.91332 -1.201411,0 -2.145221,-0.30703 -2.829708,-0.92204 -0.684476,-0.61796 -1.026132,-1.45084 -1.026132,-2.49843 0,-1.05642 0.341656,-1.89097 1.026132,-2.50304 0.684487,-0.61503 1.628297,-0.92256 2.829708,-0.92256 z m -34.92007,0.13685 h 1.99998 v 2.40561 h 2.722012 v -2.40561 h 1.999981 v 6.57275 h -1.999981 v -2.91331 h -2.722012 v 2.91331 h -1.99998 z m 34.924689,1.10359 c -0.245981,0 -0.468043,0.0366 -0.667689,0.11027 -0.199636,0.0707 -0.39204,0.19874 -0.577423,0.38412 -0.163998,0.17067 -0.298152,0.3975 -0.40153,0.67999 -0.09974,0.2825 -0.149746,0.61937 -0.149746,1.01075 0,0.40315 0.04839,0.73836 0.144611,1.00614 0.09633,0.26483 0.227822,0.48715 0.395375,0.66666 0.17113,0.18244 0.365608,0.31336 0.583084,0.39282 0.217465,0.0765 0.441589,0.11429 0.673318,0.11429 0.235294,0 0.463566,-0.0407 0.684608,-0.12301 0.221041,-0.0854 0.411866,-0.21625 0.572298,-0.39282 0.17113,-0.19125 0.3032,-0.4141 0.395902,-0.66716 0.09271,-0.25602 0.13896,-0.58956 0.13896,-1.00154 0,-0.39137 -0.04992,-0.72376 -0.149745,-0.99742 -0.09633,-0.27662 -0.226254,-0.50345 -0.390252,-0.68 -0.171108,-0.1795 -0.365597,-0.30758 -0.583062,-0.38409 -0.213899,-0.0794 -0.436981,-0.119 -0.668709,-0.119 z m -23.892522,0.35742 c 0.919782,0 1.6114,0.2048 2.074855,0.61385 0.463435,0.40901 0.695372,0.99474 0.695372,1.75689 v 0.55588 h -4.101489 c 0.01785,0.22954 0.07597,0.42198 0.175899,0.57796 0.0999,0.15302 0.231901,0.27542 0.395887,0.36665 0.16043,0.0912 0.347635,0.15727 0.561533,0.19846 0.213897,0.0382 0.447389,0.0574 0.700502,0.0574 0.217468,0 0.431198,-0.0191 0.641527,-0.0574 0.210355,-0.0412 0.402735,-0.0942 0.577432,-0.15897 0.15329,-0.056 0.294223,-0.11582 0.42256,-0.18051 0.131872,-0.0647 0.239036,-0.12232 0.321029,-0.1723 h 0.197946 v 1.27536 c -0.153301,0.0501 -0.294225,0.0968 -0.422564,0.14103 -0.124818,0.0413 -0.297948,0.0845 -0.518971,0.12869 -0.203215,0.0441 -0.413294,0.0775 -0.630761,0.10105 -0.213912,0.0264 -0.475977,0.04 -0.786142,0.04 -1.133679,0 -2.00366,-0.22399 -2.609722,-0.67128 -0.602478,-0.44728 -0.903053,-1.08437 -0.903053,-1.91126 0,-0.80923 0.281327,-1.45481 0.844604,-1.9374 0.563262,-0.4826 1.351091,-0.7241 2.363556,-0.7241 z m 49.048106,0 c 0.91977,0 1.610885,0.2048 2.07433,0.61385 0.463457,0.40901 0.69536,0.99474 0.69536,1.75689 v 0.55588 h -4.101469 c 0.01788,0.22954 0.07669,0.42198 0.176396,0.57796 0.09974,0.15302 0.231389,0.27542 0.395376,0.36665 0.160443,0.0912 0.348152,0.15727 0.562062,0.19846 0.213898,0.0382 0.447371,0.0574 0.700495,0.0574 0.217475,0 0.431188,-0.0191 0.641532,-0.0574 0.210343,-0.0412 0.403253,-0.0942 0.577927,-0.15897 0.153322,-0.056 0.294225,-0.11582 0.422564,-0.18051 0.131883,-0.0647 0.238004,-0.12232 0.32002,-0.1723 h 0.198439 v 1.27536 c -0.153301,0.0501 -0.294214,0.0968 -0.422564,0.14103 -0.124806,0.0413 -0.297418,0.0845 -0.518459,0.12869 -0.203201,0.0441 -0.414313,0.0775 -0.631778,0.10105 -0.213899,0.0264 -0.475471,0.04 -0.785638,0.04 -1.13368,0 -2.003637,-0.22399 -2.609697,-0.67128 -0.602493,-0.44728 -0.903575,-1.08437 -0.903575,-1.91126 0,-0.80923 0.281321,-1.45481 0.844601,-1.9374 0.56328,-0.4826 1.351595,-0.7241 2.364078,-0.7241 z m -43.112287,0.0138 c 1.033868,0 1.786316,0.14276 2.256904,0.4282 0.474144,0.2825 0.710765,0.71477 0.710765,1.29743 v 3.37277 h -1.861012 v -0.52564 c -0.128274,0.0883 -0.244303,0.16784 -0.347692,0.23847 -0.09974,0.0708 -0.235009,0.14115 -0.406139,0.21178 -0.167553,0.0677 -0.33188,0.119 -0.492301,0.15435 -0.156867,0.0353 -0.377875,0.0533 -0.663081,0.0533 -0.531187,0 -0.973193,-0.14728 -1.326129,-0.44154 -0.34937,-0.29427 -0.524087,-0.66501 -0.524087,-1.11229 0,-0.36784 0.08942,-0.6652 0.267683,-0.89178 0.17824,-0.2266 0.435127,-0.40605 0.770244,-0.53845 0.338672,-0.13534 0.743242,-0.2296 1.21383,-0.28258 0.470589,-0.053 0.976551,-0.0941 1.518446,-0.12357 v -0.0261 c 0,-0.27367 -0.122733,-0.46264 -0.368724,-0.56565 -0.242415,-0.10588 -0.60798,-0.15844 -1.096387,-0.15844 -0.22103,0 -0.47896,0.0339 -0.774863,0.1016 -0.295892,0.0647 -0.58552,0.14827 -0.867171,0.25127 h -0.160004 v -1.19588 c 0.185383,-0.0441 0.484391,-0.0959 0.897947,-0.15488 0.413545,-0.0618 0.831106,-0.0923 1.251771,-0.0923 z m 37.459544,0.005 c 0.33154,0 0.6633,0.0328 0.994851,0.0974 0.331552,0.0617 0.66487,0.16119 0.999976,0.29949 v 1.32459 h -0.240506 c -0.07483,-0.0588 -0.167937,-0.12315 -0.278447,-0.19383 -0.106977,-0.0707 -0.224487,-0.13547 -0.352826,-0.19437 -0.135471,-0.0617 -0.28887,-0.1136 -0.459989,-0.15486 -0.171119,-0.0441 -0.36145,-0.0656 -0.571794,-0.0656 -0.47772,0 -0.848475,0.13824 -1.112285,0.41486 -0.260255,0.27368 -0.390251,0.64273 -0.390251,1.10768 0,0.49729 0.138839,0.86804 0.416913,1.1123 0.28164,0.24423 0.653458,0.36615 1.116915,0.36615 0.235283,0 0.442763,-0.0221 0.621014,-0.0662 0.178262,-0.0441 0.331661,-0.0971 0.46,-0.15897 0.124807,-0.0617 0.231882,-0.12495 0.321008,-0.18974 0.08909,-0.0677 0.165578,-0.128 0.229742,-0.18101 h 0.240506 v 1.32459 c -0.106977,0.0382 -0.231739,0.0822 -0.374342,0.13228 -0.139037,0.0499 -0.282024,0.0907 -0.428204,0.12301 -0.181817,0.0413 -0.352387,0.0726 -0.512819,0.0934 -0.156856,0.0235 -0.365894,0.0354 -0.626138,0.0354 -0.495539,0 -0.949516,-0.0513 -1.363061,-0.15436 -0.409979,-0.10292 -0.7667,-0.26211 -1.069735,-0.47692 -0.299458,-0.21481 -0.532942,-0.4845 -0.700506,-0.80818 -0.167553,-0.32663 -0.25127,-0.7104 -0.25127,-1.15178 0,-0.47378 0.09107,-0.87722 0.272819,-1.20974 0.181805,-0.33251 0.427786,-0.60567 0.737931,-0.82049 0.29947,-0.20598 0.650485,-0.35776 1.053333,-0.45488 0.406413,-0.10006 0.828659,-0.14974 1.267165,-0.14974 z m -90.6342519,0.1226 c -0.1757482,10e-4 -0.3591624,0.0256 -0.5471706,0.0727 -1.2880351,0.32328 -1.4278752,2.38457 -0.2061482,3.03842 0.9866303,0.52803 1.9969502,0.13842 2.4015124,-0.92562 0.4445394,-1.16925 -0.4179711,-2.19879 -1.6481936,-2.1851 z m 84.4368809,0.0144 h 1.871261 v 4.95687 H 77.50692 Z m -37.342094,0.83845 c -0.363632,0 -0.64911,0.0897 -0.855881,0.26923 -0.203201,0.1795 -0.315519,0.42383 -0.336911,0.73281 h 2.262003 c -0.01107,-0.32664 -0.103224,-0.57496 -0.277936,-0.74564 -0.171113,-0.17067 -0.43477,-0.2564 -0.791275,-0.2564 z m 49.047586,0 c -0.363644,0 -0.649124,0.0897 -0.85588,0.26923 -0.203201,0.1795 -0.315543,0.42383 -0.336917,0.73281 h 2.262533 c -0.01108,-0.32664 -0.103795,-0.57496 -0.278469,-0.74564 -0.171108,-0.17067 -0.434776,-0.2564 -0.791267,-0.2564 z m -35.775442,0.18563 c -0.449193,0 -0.788228,0.1298 -1.01639,0.38873 -0.224596,0.25895 -0.336423,0.62067 -0.336423,1.08562 0,0.48848 0.08898,0.8417 0.26719,1.05947 0.181806,0.21776 0.47456,0.32666 0.877429,0.32666 0.163987,0 0.329357,-0.027 0.49691,-0.08 0.167553,-0.053 0.320953,-0.12523 0.45999,-0.21642 v -2.43174 c -0.09271,-0.0382 -0.21334,-0.0692 -0.363074,-0.0928 -0.149724,-0.0264 -0.278688,-0.0394 -0.385632,-0.0394 z m -6.085566,1.60664 c -0.317288,0.0264 -0.57366,0.0503 -0.769729,0.0708 -0.19608,0.0177 -0.389001,0.0544 -0.577949,0.11028 -0.163987,0.0472 -0.29191,0.11887 -0.384601,0.21591 -0.08909,0.0941 -0.133814,0.22108 -0.133814,0.37999 0,0.23248 0.07483,0.39274 0.224618,0.48102 0.153301,0.0854 0.377941,0.12813 0.673844,0.12813 0.163988,0 0.331431,-0.0309 0.502561,-0.0928 0.171108,-0.0618 0.326076,-0.14868 0.465113,-0.2605 z" /></g></svg>
