<?xml version="1.0" encoding="UTF-8" standalone="no"?>
<!-- Created with Inkscape (http://www.inkscape.org/) -->

<svg
   width="105.53039mm"
   height="61.428165mm"
   viewBox="0 0 105.53039 61.428165"
   version="1.1"
   id="svg1"
   xml:space="preserve"
   inkscape:version="1.3 (0e150ed6c4, 2023-07-21)"
   sodipodi:docname="ShoperPrime.svg"
   xmlns:inkscape="http://www.inkscape.org/namespaces/inkscape"
   xmlns:sodipodi="http://sodipodi.sourceforge.net/DTD/sodipodi-0.dtd"
   xmlns="http://www.w3.org/2000/svg"
   xmlns:svg="http://www.w3.org/2000/svg"><sodipodi:namedview
     id="namedview1"
     pagecolor="#ffffff"
     bordercolor="#000000"
     borderopacity="0.25"
     inkscape:showpageshadow="2"
     inkscape:pageopacity="0.0"
     inkscape:pagecheckerboard="0"
     inkscape:deskcolor="#d1d1d1"
     inkscape:document-units="mm"
     inkscape:zoom="0.50394254"
     inkscape:cx="143.86561"
     inkscape:cy="2283.9905"
     inkscape:window-width="2560"
     inkscape:window-height="1009"
     inkscape:window-x="-8"
     inkscape:window-y="-8"
     inkscape:window-maximized="1"
     inkscape:current-layer="layer1"
     inkscape:export-bgcolor="#ffffffff" /><defs
     id="defs1" /><g
     inkscape:label="Layer 1"
     inkscape:groupmode="layer"
     id="layer1"
     transform="translate(184.80942,-679.90965)"><rect
       style="fill:#0097a7;fill-opacity:1;stroke:#0097a7;stroke-width:0;stroke-dasharray:none"
       id="rect1"
       width="105.53039"
       height="61.428139"
       x="-184.80942"
       y="679.90967"
       ry="3.1334708" /><path
       id="rect15-5-0"
       style="fill:#deffff;fill-opacity:1;stroke-width:0.189748"
       d="m -142.12226,687.51584 v 15.45964 h 3.47772 v -7.90864 c 0.33118,-0.23183 0.64248,-0.40063 0.93392,-0.5066 0.29143,-0.10599 0.57942,-0.159 0.86424,-0.159 0.37754,0 0.67907,0.056 0.90427,0.16863 0.2252,0.10598 0.39739,0.28493 0.51662,0.53663 0.0993,0.21196 0.16552,0.54318 0.19863,0.99358 0.0397,0.44379 0.0597,0.8908 0.0597,1.34121 v 5.53419 h 3.49737 v -7.26304 c 0,-1.36448 -0.30151,-2.40438 -0.90427,-3.11973 -0.60275,-0.72198 -1.47384,-1.0829 -2.61311,-1.0829 -0.65574,0 -1.25502,0.13573 -1.79815,0.40729 -0.53652,0.27157 -1.08955,0.64941 -1.65919,1.13293 v -5.53419 z m -7.25267,0.39728 c -1.75527,0 -3.21925,0.43085 -4.39163,1.29192 -1.17239,0.85445 -1.7585,1.97368 -1.7585,3.35802 0,1.02667 0.2485,1.88122 0.74527,2.56345 0.49678,0.68224 1.31787,1.22512 2.46376,1.62917 0.49678,0.17221 1.03026,0.31808 1.59989,0.43731 0.57626,0.11922 1.11576,0.24516 1.61915,0.37764 0.40405,0.10598 0.75181,0.27478 1.04325,0.50661 0.29144,0.23183 0.43731,0.53334 0.43731,0.90427 0,0.33118 -0.0895,0.59925 -0.26832,0.80457 -0.17883,0.19872 -0.39727,0.35436 -0.65559,0.46696 -0.21196,0.0994 -0.49355,0.17229 -0.8446,0.21865 -0.34443,0.0464 -0.62264,0.0697 -0.8346,0.0697 -0.8412,0 -1.70891,-0.16917 -2.6031,-0.50698 -0.89419,-0.33781 -1.71227,-0.82129 -2.45412,-1.45054 h -0.33762 v 2.5931 l -8.12507,0.0108 -3.7e-4,-1.19334 -3.7e-4,-1.19333 2.12651,-0.0537 c 3.33601,-0.0844 3.61285,-0.41103 3.60855,-4.25376 -0.003,-2.80749 -0.12231,-3.22174 -1.11922,-3.89354 -0.63884,-0.42997 -0.67535,-0.43241 -7.49208,-0.43212 -7.68377,3.3e-4 -7.86108,0.0279 -8.51049,1.32786 -0.42525,0.85125 -0.47583,4.79584 -0.0737,5.74581 0.50629,1.19619 0.87675,1.35983 3.31837,1.46462 l 2.21026,0.0949 0.0567,1.18593 0.0563,1.18592 h -3.36432 c -3.00171,0 -3.45103,0.0417 -4.16631,0.38802 -1.39206,0.67369 -1.40727,0.77585 -1.39494,9.34027 0.008,5.24795 0.0775,7.63776 0.23719,8.10135 0.34889,1.01297 1.2621,1.52465 2.72132,1.52465 h 1.20557 v 0.74602 0.74639 l -3.09823,0.0597 c -2.94142,0.0572 -3.13364,0.0844 -3.79792,0.53478 -1.26027,0.85446 -1.45276,1.55286 -1.45276,5.26551 0,1.84042 0.0877,3.48008 0.20235,3.78272 0.28776,0.75951 0.91208,1.38288 1.79001,1.78816 0.72141,0.33287 1.67561,0.35021 19.25904,0.35021 17.58574,0 18.53796,-0.0172 19.25942,-0.35021 0.87806,-0.40527 1.50221,-1.02856 1.79001,-1.78816 0.11466,-0.30264 0.20234,-1.9423 0.20234,-3.78272 0,-3.71265 -0.19248,-4.41105 -1.45276,-5.26551 -0.66426,-0.45038 -0.85648,-0.47762 -3.79792,-0.53478 l -3.09823,-0.0597 v -0.74639 -0.74602 h 1.20557 c 1.45923,0 2.37244,-0.51168 2.72133,-1.52465 0.16008,-0.46477 0.22843,-2.85484 0.23274,-8.15249 0.006,-6.90914 -0.0209,-7.55576 -0.34615,-8.27183 -0.1778,-0.39155 -0.31614,-0.6716 -0.62409,-0.8761 0.99865,-0.86839 1.50464,-1.98167 1.50464,-3.34653 0,-1.02666 -0.25152,-1.85152 -0.75491,-2.47414 -0.49678,-0.62925 -1.25847,-1.12927 -2.28513,-1.50019 -0.52327,-0.18547 -1.0169,-0.33134 -1.48055,-0.43731 -0.45703,-0.10598 -0.93412,-0.21501 -1.4309,-0.32761 -0.76834,-0.17884 -1.28829,-0.37772 -1.55986,-0.5963 -0.26495,-0.22521 -0.39728,-0.52635 -0.39728,-0.9039 0,-0.25832 0.0827,-0.49029 0.2483,-0.69562 0.17222,-0.21195 0.37448,-0.37098 0.6063,-0.47696 0.28482,-0.13248 0.55626,-0.22195 0.81459,-0.26831 0.25832,-0.0464 0.54968,-0.0693 0.87424,-0.0693 0.83458,0 1.6459,0.16204 2.43411,0.4866 0.79484,0.32455 1.46742,0.72194 2.01719,1.19222 h 0.32761 v -3.37803 c -0.68886,-0.30469 -1.47047,-0.54643 -2.3448,-0.72527 -0.86769,-0.17883 -1.7418,-0.26831 -2.62274,-0.26831 z m -17.29042,3.39286 c 6.58373,0 6.91175,0.0167 7.2297,0.36801 0.28505,0.31501 0.32965,0.73184 0.31093,2.89365 -0.0201,2.31739 -0.0547,2.55304 -0.41952,2.85771 -0.36234,0.30259 -0.997,0.33206 -7.14779,0.33206 -8.336,0 -7.62846,0.30192 -7.62846,-3.25906 0,-2.18065 0.0394,-2.47283 0.37949,-2.81287 0.36558,-0.36558 0.63229,-0.3795 7.27565,-0.3795 z m 42.51651,0.16418 c -1.82149,0 -3.23886,0.52671 -4.25227,1.57987 -1.0068,1.04653 -1.5102,2.49699 -1.5102,4.35161 0,1.83474 0.5034,3.28218 1.5102,4.34196 1.01341,1.05316 2.43078,1.57951 4.25227,1.57951 1.83476,0 3.25212,-0.52635 4.25229,-1.57951 1.00679,-1.05978 1.5102,-2.50722 1.5102,-4.34196 0,-1.84138 -0.50341,-3.28881 -1.5102,-4.34197 -1.00679,-1.05979 -2.42416,-1.58951 -4.25229,-1.58951 z m 25.5641,0 c -1.88111,0 -3.34509,0.54326 -4.39163,1.62953 -1.04653,1.08628 -1.56987,2.54011 -1.56987,4.36161 0,1.86124 0.5598,3.29515 1.6792,4.30195 1.12602,1.00678 2.74226,1.51019 4.848579,1.51019 0.576256,0 1.063122,-0.0297 1.46054,-0.0893 0.404043,-0.053 0.794666,-0.1293 1.172213,-0.22866 0.410665,-0.0993 0.732107,-0.19522 0.963935,-0.28796 0.23845,-0.0994 0.500117,-0.20537 0.784933,-0.31797 v -2.87142 h -0.367636 c -0.152344,0.1126 -0.351223,0.24192 -0.596298,0.38764 -0.238451,0.14573 -0.500118,0.28145 -0.784934,0.4073 -0.324559,0.14572 -0.682096,0.26489 -1.072891,0.35763 -0.390795,0.0861 -0.788183,0.12897 -1.192225,0.12897 -0.470279,0 -0.904135,-0.0429 -1.301553,-0.12897 -0.397418,-0.0927 -0.74518,-0.24162 -1.043243,-0.44695 -0.30469,-0.20533 -0.54981,-0.48053 -0.73527,-0.82496 -0.18547,-0.35105 -0.29487,-0.78491 -0.32799,-1.30155 h 7.620683 v -1.2519 c 0,-1.71552 -0.430473,-3.03362 -1.291547,-3.95431 -0.861072,-0.92069 -2.146097,-1.38086 -3.854996,-1.38086 z m -11.07802,0.0397 c -0.69548,0 -1.30829,0.13572 -1.83818,0.40729 -0.52989,0.27157 -1.04984,0.6261 -1.55987,1.06326 v -1.16258 h -3.47735 v 15.251 h 3.47735 v -4.64957 c 0.46366,0.26494 0.9009,0.46007 1.31156,0.58591 0.41067,0.12586 0.89415,0.18901 1.45054,0.18901 1.32473,0 2.43756,-0.54664 3.33838,-1.63954 0.90743,-1.0929 1.36084,-2.53019 1.36084,-4.31194 0,-1.76852 -0.35415,-3.16595 -1.06288,-4.19262 -0.70873,-1.02666 -1.70878,-1.54022 -3.00039,-1.54022 z m 24.749138,0.26832 c -0.298063,0 -0.616122,0.0564 -0.953928,0.16899 -0.331182,0.10598 -0.622551,0.23493 -0.874249,0.38728 -0.231827,0.13247 -0.490111,0.31142 -0.774928,0.53663 -0.278192,0.21858 -0.496627,0.40092 -0.655594,0.54663 v -1.59988 h -3.477724 v 11.1577 h 3.477724 v -7.4717 c 0.377548,-0.14572 0.764789,-0.27129 1.162207,-0.37727 0.404042,-0.10598 0.78827,-0.15899 1.15257,-0.15899 0.304688,0 0.582897,0.0132 0.834595,0.0397 0.251698,0.0199 0.443813,0.0529 0.576285,0.0993 h 0.287958 v -3.28872 c -0.112602,-0.0133 -0.238176,-0.023 -0.377273,-0.0296 -0.139096,-0.006 -0.265041,-0.01 -0.377643,-0.01 z m -77.832248,1.03805 -3.93726,0.0511 -3.93728,0.0515 v 1.61286 1.61285 l 3.80682,0.0511 c 2.09383,0.0282 3.86563,-0.007 3.93727,-0.0789 0.0717,-0.0716 0.13045,-0.84372 0.13045,-1.71552 z m 63.892815,0.88945 c 0.662364,0 1.152611,0.19211 1.470546,0.57628 0.324558,0.38417 0.496748,0.94397 0.516619,1.6792 h -4.20299 c 0.0397,-0.69549 0.2484,-1.24551 0.62594,-1.64955 0.38417,-0.40405 0.914273,-0.60593 1.589885,-0.60593 z m -25.295785,0.2583 c 0.33119,0 0.62594,0.0564 0.88426,0.169 0.25833,0.10597 0.49029,0.29809 0.69562,0.57629 0.19209,0.26494 0.34097,0.6191 0.44695,1.06288 0.1126,0.43716 0.16899,0.98718 0.16899,1.64954 0,0.70873 -0.053,1.26515 -0.15899,1.66919 -0.10597,0.39742 -0.26162,0.73842 -0.46695,1.02324 -0.17222,0.23844 -0.40418,0.4174 -0.69562,0.53662 -0.28482,0.11923 -0.56641,0.17863 -0.8446,0.17863 -0.33781,0 -0.64572,-0.0594 -0.92391,-0.17863 -0.2782,-0.11922 -0.50979,-0.30832 -0.69525,-0.56664 -0.17884,-0.2517 -0.32471,-0.58594 -0.43731,-1.00322 -0.1126,-0.42391 -0.16899,-0.97695 -0.16899,-1.65919 0,-0.68223 0.0598,-1.2488 0.17899,-1.6992 0.11923,-0.45041 0.27826,-0.80457 0.47697,-1.06289 0.21196,-0.27157 0.44355,-0.4539 0.69525,-0.54664 0.2517,-0.0993 0.53328,-0.14898 0.84459,-0.14898 z m 12.92622,0.2483 c 0.70873,0 1.22868,0.24513 1.55986,0.73528 0.33781,0.49015 0.50661,1.27853 0.50661,2.36481 0,1.11277 -0.20527,1.9474 -0.61594,2.50378 -0.41066,0.54976 -1.04002,0.82459 -1.88784,0.82459 -0.30469,0 -0.56974,-0.0166 -0.79494,-0.0497 -0.21858,-0.0331 -0.42047,-0.0895 -0.60594,-0.16899 v -5.6135 c 0.29807,-0.19871 0.59921,-0.34797 0.9039,-0.44732 0.31131,-0.0994 0.62298,-0.14898 0.93429,-0.14898 z m -50.15943,8.09913 c 2.71838,0 4.48734,0.003 6.32023,0.005 0.57998,0.22702 1.18319,0.43331 1.83189,0.59926 0.86107,0.21858 1.85774,0.32798 2.99038,0.32798 1.49886,0 2.75979,-0.26139 3.7857,-0.78048 0.37507,0.0544 0.49473,0.12672 0.59556,0.22755 0.36709,0.36709 0.37949,0.63249 0.37949,8.11691 0,6.69586 -0.0397,7.79422 -0.29537,8.15916 l -0.29537,0.42174 h -15.34809 -15.34809 l -0.29537,-0.42174 c -0.25557,-0.36493 -0.29537,-1.46257 -0.29537,-8.15175 0,-7.70767 7.2e-4,-7.73115 0.41507,-8.11692 0.41072,-0.3826 0.58117,-0.3869 15.55934,-0.3869 z m 39.30673,1.05473 v 2.87439 h 3.63598 v -2.87439 z m -21.65943,0.70526 v 15.67903 h 3.67562 v -5.12801 h 1.92602 c 0.52412,0 0.99603,-0.0455 1.41533,-0.13675 0.42584,-0.0913 0.81892,-0.21766 1.17925,-0.37913 0.36033,-0.16146 0.68765,-0.35796 0.98247,-0.58962 0.30136,-0.23166 0.57674,-0.48448 0.8257,-0.75825 0.40619,-0.44226 0.71734,-0.99339 0.93354,-1.65326 0.2162,-0.65987 0.32428,-1.35493 0.32428,-2.085 0,-0.90557 -0.15077,-1.68454 -0.45214,-2.33739 -0.30136,-0.65986 -0.72713,-1.18638 -1.27746,-1.5795 -0.49791,-0.35801 -1.05483,-0.61792 -1.67067,-0.77937 -0.60929,-0.16848 -1.33659,-0.25275 -2.18173,-0.25275 z m -28.4155,1.30229 c -1.86827,0.004 -2.70959,0.0597 -2.85289,0.17863 -0.27052,0.22452 -0.36658,1.59009 -0.1512,2.15134 0.101,0.26318 0.73258,0.30019 5.13208,0.30019 h 5.01646 l -0.0559,-1.2808 -0.0559,-1.2808 -4.80967,-0.0556 c -0.86311,-0.01 -1.60011,-0.0143 -2.22287,-0.013 z m -2.35999,0.73268 h 4.45908 4.45907 v 0.56924 0.56925 h -4.45907 -4.45908 v -0.56925 z m 16.49473,0.18938 0.0545,1.94491 0.0537,1.94492 1.71662,0.0545 c 0.94431,0.0298 1.77683,-0.006 1.85004,-0.0793 0.0733,-0.0732 0.13342,-0.9728 0.13342,-1.99903 v -1.8656 l -1.90415,-3.7e-4 z m 5.42116,0.0949 v 1.89748 1.89748 l 1.85338,0.0545 c 1.42953,0.042 1.87601,-0.005 1.9527,-0.20457 0.0547,-0.14252 0.0745,-1.02096 0.0441,-1.95196 l -0.0552,-1.69254 -1.89748,-3.6e-4 z m 12.53522,0.60816 h 0.5207 c 0.54377,0 0.973,0.0141 1.28747,0.0422 0.32102,0.0211 0.65525,0.11205 1.00248,0.2735 0.27516,0.11934 0.51093,0.34047 0.70748,0.66338 0.19654,0.3159 0.29463,0.69512 0.29463,1.13738 0,0.47735 -0.0458,0.85658 -0.1375,1.13737 -0.0852,0.2808 -0.2521,0.55077 -0.50105,0.81051 -0.11793,0.12635 -0.28832,0.24232 -0.51107,0.34762 -0.21619,0.0983 -0.42272,0.16503 -0.61927,0.20013 -0.2293,0.0421 -0.49777,0.0668 -0.80569,0.0737 -0.30792,0.007 -0.6356,0.0104 -0.98283,0.0104 h -0.25535 z m 48.438362,0.55812 c -1.860617,0 -3.308687,0.57574 -4.343819,1.72701 -1.035133,1.15126 -1.55245,2.69204 -1.55245,4.62251 0,1.97259 0.553466,3.49249 1.660665,4.55951 1.11375,1.06702 2.712216,1.60026 4.795583,1.60026 0.569978,0 1.051517,-0.0313 1.444605,-0.0945 0.39964,-0.0562 0.786178,-0.13707 1.159612,-0.24237 0.406191,-0.1053 0.723885,-0.2071 0.953187,-0.30538 0.235853,-0.10529 0.494697,-0.21753 0.77641,-0.33687 v -3.04301 h -0.36356 c -0.150684,0.11934 -0.347222,0.25619 -0.589627,0.41063 -0.235852,0.15444 -0.494697,0.29837 -0.77641,0.43175 -0.321022,0.15444 -0.674866,0.28084 -1.061403,0.37912 -0.386536,0.0913 -0.779614,0.13676 -1.179254,0.13676 -0.465154,0 -0.89401,-0.0455 -1.287098,-0.13676 -0.393089,-0.0983 -0.737309,-0.25638 -1.032126,-0.474 -0.301367,-0.21762 -0.543679,-0.50884 -0.72712,-0.87387 -0.183441,-0.37206 -0.291519,-0.83184 -0.324276,-1.37939 h 7.537664 v -1.32675 c 0,-1.81815 -0.426143,-3.21536 -1.277834,-4.19113 -0.851692,-0.97576 -2.122469,-1.46351 -3.812749,-1.46351 z m -17.571332,0.0422 c -0.62239,0 -1.18239,0.14394 -1.6803,0.43175 -0.49792,0.28781 -1.02868,0.68793 -1.59211,1.20038 v -1.306 h -3.43955 v 11.82515 h 3.43955 v -8.38189 c 0.25551,-0.18954 0.51781,-0.35436 0.78642,-0.49476 0.26861,-0.14039 0.54361,-0.2105 0.82533,-0.2105 0.36688,0 0.65188,0.0597 0.85498,0.179 0.20964,0.11232 0.36349,0.29467 0.46177,0.54738 0.0983,0.25272 0.15749,0.58273 0.17714,0.98988 0.0262,0.40013 0.0393,0.88787 0.0393,1.4635 v 5.90739 h 3.45919 v -8.38189 c 0.30137,-0.22464 0.57983,-0.39655 0.83534,-0.51588 0.25551,-0.12636 0.51435,-0.18938 0.77641,-0.18938 0.37343,0 0.66152,0.0597 0.86461,0.179 0.20965,0.11232 0.3635,0.29467 0.46177,0.54738 0.0983,0.25272 0.1575,0.57936 0.17715,0.9795 0.0197,0.40013 0.0293,0.89123 0.0293,1.47388 v 5.90739 h 3.459198 v -7.69738 c 0,-0.84239 -0.07847,-1.52329 -0.235702,-2.04276 -0.150684,-0.52649 -0.379917,-0.97918 -0.687836,-1.35826 -0.28171,-0.35099 -0.62593,-0.61425 -1.03213,-0.78975 -0.40619,-0.17549 -0.86465,-0.26312 -1.37567,-0.26312 -0.60273,0 -1.19889,0.17898 -1.78852,0.537 -0.58308,0.35099 -1.20539,0.85626 -1.86709,1.51613 -0.26861,-0.68093 -0.6586,-1.19328 -1.16962,-1.53726 -0.51101,-0.34397 -1.10409,-0.51587 -1.77889,-0.51587 z m -14.84889,0.28425 c -0.29482,0 -0.60905,0.0597 -0.94318,0.179 -0.32757,0.11232 -0.61603,0.24917 -0.86498,0.41063 -0.22931,0.1404 -0.48469,0.32982 -0.76641,0.5685 -0.27516,0.23165 -0.49131,0.42481 -0.64855,0.57925 v -1.6955 h -3.43955 v 11.82515 h 3.43955 v -7.91827 c 0.37344,-0.15444 0.75652,-0.28793 1.14961,-0.40025 0.39964,-0.11232 0.77964,-0.16863 1.13997,-0.16863 0.30137,0 0.57674,0.0142 0.82569,0.0422 0.24897,0.0211 0.43896,0.0561 0.56999,0.10525 h 0.285 v -3.48551 c -0.11138,-0.014 -0.23599,-0.0245 -0.37357,-0.0315 -0.13758,-0.007 -0.26219,-0.0104 -0.37357,-0.0104 z m 2.06388,0.0419 v 11.82515 h 3.43956 v -11.82515 z m 30.090992,2.00088 c 0.655147,0 1.13977,0.20359 1.45424,0.61075 0.321022,0.40715 0.491405,1.00042 0.511059,1.77963 h -4.156666 c 0.03931,-0.73709 0.245471,-1.31992 0.618905,-1.74813 0.379985,-0.42822 0.904212,-0.64225 1.572462,-0.64225 z m -56.818392,1.66955 -1.94492,0.0541 -1.94492,0.0541 v 1.80261 1.8026 l 1.94492,0.0541 1.94492,0.0537 v -1.91045 z m -9.29766,0.0133 v 1.89748 1.89748 h 1.89748 1.89748 v -1.89748 -1.89748 h -1.89748 z m 25.05563,10.33237 c -2.58431,0 -4.66476,1.71704 -4.66476,3.85018 v 4.31676 c 0,2.13315 2.08045,3.85018 4.66476,3.85018 h 40.716875 c 2.584312,0 4.66476,-1.71703 4.66476,-3.85018 v -4.31676 c 0,-2.13314 -2.080448,-3.85018 -4.66476,-3.85018 z m -28.47109,1.14738 c 15.2111,0 18.41652,0.0446 18.93625,0.26387 1.0563,0.44558 1.17704,0.9251 1.17704,4.67884 v 3.34913 l -0.64819,0.64781 -0.64781,0.64781 -18.91179,-0.0501 -18.91179,-0.0501 -0.55331,-0.61965 -0.55369,-0.62001 v -3.32689 c 0,-3.72993 0.12152,-4.21189 1.17667,-4.65698 0.51972,-0.21927 3.72552,-0.26387 18.93662,-0.26387 z m 56.70759,2.31403 c 0.1958,0 0.37882,0.006 0.54886,0.0193 0.17004,0.0107 0.31698,0.0257 0.44064,0.0448 v 0.81014 h -0.10451 c -0.0515,-0.0128 -0.1327,-0.029 -0.24348,-0.0482 -0.10821,-0.0212 -0.21155,-0.0318 -0.30945,-0.0318 -0.2731,0 -0.4595,0.042 -0.55998,0.12489 -0.0979,0.0829 -0.14713,0.23794 -0.14713,0.46548 v 0.0285 h 1.07437 v 0.77863 h -1.02767 v 2.80397 h -1.35307 v -2.80397 h -0.54071 v -0.77863 h 0.54071 v -0.0986 c 0,-0.43808 0.13942,-0.76676 0.41767,-0.9858 0.27825,-0.21903 0.69952,-0.32872 1.26375,-0.32872 z m 3.02596,0 c 0.19581,0 0.37882,0.006 0.54886,0.0193 0.17004,0.0107 0.31698,0.0257 0.44065,0.0448 v 0.81014 h -0.10451 c -0.0515,-0.0128 -0.1327,-0.029 -0.24349,-0.0482 -0.10821,-0.0212 -0.21118,-0.0318 -0.30908,-0.0318 -0.2731,0 -0.46024,0.042 -0.56072,0.12489 -0.0979,0.0829 -0.14676,0.23794 -0.14676,0.46548 v 0.0285 h 1.07475 v 0.77863 h -1.02805 v 2.80397 h -1.3527 v -2.80397 h -0.54108 v -0.77863 h 0.54108 v -0.0986 c 0,-0.43808 0.13942,-0.76676 0.41767,-0.9858 0.27825,-0.21903 0.69915,-0.32872 1.26338,-0.32872 z m -15.61307,0.0319 h 1.35269 v 4.96383 h -1.35269 v -0.37357 c -0.0876,0.0596 -0.18794,0.12356 -0.3013,0.19161 -0.11078,0.068 -0.20887,0.11902 -0.29389,0.15305 -0.10821,0.0425 -0.21494,0.0744 -0.32057,0.0956 -0.10563,0.0212 -0.2319,0.0318 -0.37875,0.0318 -0.49467,0 -0.88625,-0.16887 -1.17481,-0.50699 -0.28856,-0.33813 -0.43286,-0.79036 -0.43286,-1.35603 0,-0.31261 0.0489,-0.58342 0.14676,-0.8131 0.0979,-0.22967 0.23319,-0.42987 0.40581,-0.6 0.15716,-0.15525 0.34806,-0.27721 0.5722,-0.36653 0.22415,-0.0914 0.46091,-0.13712 0.71082,-0.13712 0.22672,0 0.41236,0.02 0.55664,0.0604 0.14686,0.0383 0.31672,0.099 0.50995,0.18196 z m 16.8153,0 h 1.429781 v 0.87091 h -1.429781 z m -9.58042,0.11488 c 0.86567,0 1.547,0.22104 2.04424,0.66338 0.49724,0.4402 0.74602,1.04453 0.74602,1.81224 0,0.76769 -0.24878,1.37166 -0.74602,1.81187 -0.49724,0.44021 -1.17857,0.66004 -2.04424,0.66004 -0.86824,0 -1.55031,-0.22189 -2.04498,-0.66634 -0.49466,-0.44659 -0.74157,-1.0485 -0.74157,-1.80557 0,-0.76346 0.24691,-1.36657 0.74157,-1.80891 0.49467,-0.44446 1.17674,-0.66671 2.04498,-0.66671 z m -25.23611,0.0989 h 1.44535 v 1.73849 h 1.96715 v -1.73849 h 1.44535 v 4.75 h -1.44535 v -2.10539 h -1.96715 v 2.10539 h -1.44535 z m 25.23945,0.79754 c -0.17777,0 -0.33825,0.0265 -0.48253,0.0797 -0.14427,0.0511 -0.28332,0.14362 -0.41729,0.27759 -0.11852,0.12334 -0.21547,0.28726 -0.29018,0.49142 -0.0721,0.20415 -0.10822,0.4476 -0.10822,0.73045 0,0.29134 0.035,0.5336 0.10451,0.72712 0.0696,0.19139 0.16464,0.35205 0.28573,0.48178 0.12367,0.13185 0.26422,0.22646 0.42138,0.28388 0.15716,0.0553 0.31913,0.0826 0.4866,0.0826 0.17004,0 0.33501,-0.0294 0.49475,-0.0889 0.15974,-0.0617 0.29765,-0.15628 0.41359,-0.28388 0.12367,-0.13822 0.21912,-0.29926 0.28611,-0.48215 0.067,-0.18502 0.10043,-0.42606 0.10043,-0.72379 0,-0.28284 -0.0361,-0.52305 -0.10822,-0.72082 -0.0696,-0.19991 -0.16351,-0.36383 -0.28203,-0.49142 -0.12366,-0.12972 -0.26421,-0.22229 -0.42137,-0.27758 -0.15458,-0.0574 -0.3158,-0.086 -0.48326,-0.086 z m -17.2667,0.2583 c 0.66471,0 1.16453,0.14801 1.49946,0.44362 0.33492,0.29559 0.50253,0.71888 0.50253,1.26967 v 0.40173 h -2.96407 c 0.0129,0.16588 0.0549,0.30496 0.12712,0.41768 0.0722,0.11058 0.16759,0.19904 0.2861,0.26497 0.11594,0.0659 0.25123,0.11366 0.40581,0.14343 0.15458,0.0276 0.32332,0.0415 0.50624,0.0415 0.15716,0 0.31162,-0.0138 0.46362,-0.0415 0.15202,-0.0298 0.29105,-0.0681 0.4173,-0.11489 0.11078,-0.0404 0.21263,-0.0837 0.30538,-0.13045 0.0953,-0.0468 0.17274,-0.0884 0.232,-0.12452 h 0.14305 v 0.92168 c -0.11079,0.0362 -0.21263,0.0699 -0.30538,0.10192 -0.0902,0.0298 -0.21532,0.0611 -0.37505,0.093 -0.14686,0.0319 -0.29868,0.056 -0.45584,0.073 -0.15459,0.0191 -0.34398,0.0289 -0.56813,0.0289 -0.81929,0 -1.44801,-0.16187 -1.886,-0.48512 -0.4354,-0.32324 -0.65262,-0.78365 -0.65262,-1.38123 0,-0.58482 0.20331,-1.05137 0.61038,-1.40013 0.40706,-0.34877 0.97641,-0.52329 1.7081,-0.52329 z m 35.446183,0 c 0.664708,0 1.164152,0.14801 1.499083,0.44362 0.334931,0.29559 0.502535,0.71888 0.502535,1.26967 v 0.40173 h -2.96407 c 0.01289,0.16588 0.05535,0.30496 0.127487,0.41768 0.07214,0.11058 0.167219,0.19904 0.285733,0.26497 0.115938,0.0659 0.251596,0.11366 0.40618,0.14343 0.154583,0.0276 0.323317,0.0415 0.506241,0.0415 0.157161,0 0.311615,-0.0138 0.463623,-0.0415 0.152007,-0.0298 0.291424,-0.0681 0.417667,-0.11489 0.110785,-0.0404 0.212626,-0.0837 0.305376,-0.13045 0.09533,-0.0468 0.171997,-0.0884 0.231255,-0.12452 h 0.143423 v 0.92168 c -0.110785,0.0362 -0.212624,0.0699 -0.305376,0.10192 -0.09017,0.0298 -0.214942,0.0611 -0.374678,0.093 -0.146854,0.0319 -0.29942,0.056 -0.45658,0.073 -0.154584,0.0191 -0.343616,0.0289 -0.567762,0.0289 -0.819292,0 -1.448004,-0.16187 -1.885991,-0.48512 -0.43541,-0.32324 -0.653,-0.78365 -0.653,-1.38123 0,-0.58482 0.20331,-1.05137 0.610381,-1.40013 0.40707,-0.34877 0.976778,-0.52329 1.708473,-0.52329 z m -31.156473,0.01 c 0.74716,0 1.29094,0.10317 1.63102,0.30945 0.34266,0.20416 0.51366,0.51655 0.51366,0.93763 v 2.43744 h -1.34492 v -0.37987 c -0.0927,0.0638 -0.17655,0.1213 -0.25127,0.17234 -0.0721,0.0511 -0.16984,0.10201 -0.29351,0.15305 -0.12109,0.0489 -0.23984,0.086 -0.35578,0.11155 -0.11336,0.0255 -0.27308,0.0385 -0.47919,0.0385 -0.38388,0 -0.70331,-0.10643 -0.95837,-0.31909 -0.25249,-0.21266 -0.37875,-0.48059 -0.37875,-0.80383 0,-0.26583 0.0646,-0.48073 0.19345,-0.64448 0.12881,-0.16375 0.31446,-0.29344 0.55664,-0.38913 0.24475,-0.0978 0.53713,-0.16592 0.87721,-0.20421 0.34009,-0.0383 0.70574,-0.068 1.09736,-0.0893 v -0.0189 c 0,-0.19778 -0.0887,-0.33434 -0.26647,-0.40878 -0.17519,-0.0765 -0.43938,-0.11451 -0.79234,-0.11451 -0.15974,0 -0.34614,0.0245 -0.55998,0.0734 -0.21384,0.0468 -0.42315,0.10716 -0.62669,0.18159 h -0.11563 v -0.86424 c 0.13397,-0.0319 0.35006,-0.0693 0.64893,-0.11193 0.29886,-0.0446 0.60062,-0.0667 0.90463,-0.0667 z m 27.071333,0.004 c 0.239603,0 0.479362,0.0237 0.718966,0.0704 0.239605,0.0446 0.480492,0.11649 0.722673,0.21644 v 0.95726 h -0.173812 c -0.05411,-0.0425 -0.121368,-0.089 -0.201237,-0.14008 -0.07729,-0.0511 -0.162223,-0.0979 -0.254973,-0.14047 -0.0979,-0.0446 -0.208763,-0.0821 -0.33243,-0.11192 -0.123667,-0.0319 -0.261213,-0.0474 -0.41322,-0.0474 -0.345238,0 -0.613182,0.0999 -0.803835,0.29981 -0.188078,0.19778 -0.282028,0.46449 -0.282028,0.8005 0,0.35939 0.100341,0.62732 0.301299,0.80384 0.203535,0.1765 0.472239,0.26461 0.80717,0.26461 0.170042,0 0.319979,-0.0159 0.448799,-0.0478 0.128819,-0.0319 0.239679,-0.0702 0.332429,-0.11489 0.09017,-0.0446 0.167586,-0.0903 0.231997,-0.13712 0.06441,-0.0489 0.119654,-0.0925 0.166029,-0.13082 h 0.173812 v 0.95726 c -0.07729,0.0276 -0.167483,0.0594 -0.270539,0.0956 -0.100479,0.0361 -0.20382,0.0656 -0.309452,0.0889 -0.131396,0.0298 -0.254665,0.0525 -0.370602,0.0675 -0.11336,0.017 -0.264427,0.0256 -0.452504,0.0256 -0.358118,0 -0.686198,-0.0371 -0.985059,-0.11156 -0.296285,-0.0744 -0.554081,-0.18942 -0.773075,-0.34466 -0.216415,-0.15524 -0.385151,-0.35014 -0.506241,-0.58406 -0.121091,-0.23605 -0.181595,-0.51339 -0.181595,-0.83237 0,-0.34239 0.06576,-0.63395 0.19716,-0.87425 0.131396,-0.24031 0.309149,-0.43771 0.533295,-0.59296 0.216418,-0.14886 0.470084,-0.25855 0.761216,-0.32873 0.29371,-0.0723 0.59886,-0.10822 0.915757,-0.10822 z m -65.499743,0.0886 c -0.12701,10e-4 -0.25956,0.0185 -0.39543,0.0526 -0.93084,0.23363 -1.0319,1.72328 -0.14898,2.19581 0.71302,0.3816 1.44316,0.10004 1.73553,-0.66893 0.32126,-0.84499 -0.30206,-1.58903 -1.19112,-1.57913 z m 61.02102,0.0104 h 1.352328 v 3.58224 h -1.352328 z m -26.98646,0.60593 c -0.26279,0 -0.4691,0.0649 -0.61853,0.19457 -0.14685,0.12972 -0.22802,0.30629 -0.24348,0.52959 h 1.63471 c -0.008,-0.23606 -0.0746,-0.41551 -0.20086,-0.53886 -0.12366,-0.12334 -0.3142,-0.1853 -0.57184,-0.1853 z m 35.445813,0 c -0.262792,0 -0.469104,0.0649 -0.618534,0.19457 -0.146855,0.12972 -0.228027,0.30629 -0.243485,0.52959 h 1.635094 c -0.0077,-0.23606 -0.075,-0.41551 -0.201237,-0.53886 -0.123667,-0.12334 -0.314199,-0.1853 -0.571838,-0.1853 z m -25.854273,0.13416 c -0.32462,0 -0.56964,0.0938 -0.73453,0.28092 -0.16231,0.18714 -0.24312,0.44855 -0.24312,0.78456 0,0.35301 0.0643,0.60828 0.19309,0.76566 0.13139,0.15737 0.34296,0.23607 0.6341,0.23607 0.11851,0 0.23802,-0.0195 0.35911,-0.0578 0.12109,-0.0383 0.23195,-0.0905 0.33243,-0.1564 v -1.75738 c -0.067,-0.0276 -0.15418,-0.05 -0.26239,-0.0671 -0.1082,-0.0191 -0.2014,-0.0285 -0.27869,-0.0285 z m -4.39793,1.16109 c -0.2293,0.0191 -0.41457,0.0363 -0.55627,0.0511 -0.1417,0.0128 -0.28112,0.0393 -0.41767,0.0797 -0.11851,0.0341 -0.21096,0.0859 -0.27795,0.15603 -0.0644,0.068 -0.0967,0.15977 -0.0967,0.27461 0,0.16801 0.0541,0.28383 0.16233,0.34763 0.11078,0.0617 0.27313,0.0926 0.48697,0.0926 0.11851,0 0.23952,-0.0224 0.36319,-0.0671 0.12366,-0.0446 0.23565,-0.10745 0.33613,-0.18826 z" /></g></svg>
